<mxfile host="app.diagrams.net" modified="2024-03-14T10:45:37.926Z" agent="Mozilla/5.0 (Windows NT 10.0; Win64; x64) AppleWebKit/537.36 (KHTML, like Gecko) Chrome/122.0.0.0 Safari/537.36" etag="qJz6EKoCX3WA3e-4JC2j" version="24.0.6" type="device">
  <diagram name="Pagina-1" id="Qoa8plu6NF-_PzZokU5a">
    <mxGraphModel dx="1050" dy="569" grid="1" gridSize="10" guides="1" tooltips="1" connect="1" arrows="1" fold="1" page="1" pageScale="1" pageWidth="827" pageHeight="1169" math="0" shadow="0">
      <root>
        <mxCell id="0" />
        <mxCell id="1" parent="0" />
        <mxCell id="OBUHToqlX0FCcyiYSKW_-7" value="fs:Memory" style="graphMlID=n4;shape=rect;rounded=1;arcsize=30;fillColor=#ffff00;strokeColor=#000000;strokeWidth=1.0" parent="1" vertex="1">
          <mxGeometry x="520" y="340" width="81.96822102864604" height="44" as="geometry" />
        </mxCell>
        <mxCell id="OBUHToqlX0FCcyiYSKW_-12" value="foaf:Person" style="graphMlID=n4;shape=rect;rounded=1;arcsize=30;fillColor=#ffff00;strokeColor=#000000;strokeWidth=1.0" parent="1" vertex="1">
          <mxGeometry x="520" y="220" width="81.96822102864604" height="44" as="geometry" />
        </mxCell>
        <mxCell id="OBUHToqlX0FCcyiYSKW_-17" value="cbo:Recent&#xa;Memory" style="graphMlID=n4;shape=rect;rounded=1;arcsize=30;fillColor=#ffff00;strokeColor=#000000;strokeWidth=1.0" parent="1" vertex="1">
          <mxGeometry x="758.03" y="340" width="81.96822102864604" height="44" as="geometry" />
        </mxCell>
        <mxCell id="OBUHToqlX0FCcyiYSKW_-21" value="fs:Deciding" style="graphMlID=n4;shape=rect;rounded=1;arcsize=30;fillColor=#ffff00;strokeColor=#000000;strokeWidth=1.0" parent="1" vertex="1">
          <mxGeometry x="960" y="220" width="81.96822102864604" height="44" as="geometry" />
        </mxCell>
        <mxCell id="OBUHToqlX0FCcyiYSKW_-24" value="cbo:Decision" style="graphMlID=n4;shape=rect;rounded=1;arcsize=30;fillColor=#ffff00;strokeColor=#000000;strokeWidth=1.0" parent="1" vertex="1">
          <mxGeometry x="960" y="480" width="81.96822102864604" height="44" as="geometry" />
        </mxCell>
        <mxCell id="OBUHToqlX0FCcyiYSKW_-31" value="fs:Importance" style="graphMlID=n4;shape=rect;rounded=1;arcsize=30;fillColor=#ffff00;strokeColor=#000000;strokeWidth=1.0" parent="1" vertex="1">
          <mxGeometry x="520" y="480" width="81.96822102864604" height="44" as="geometry" />
        </mxCell>
        <mxCell id="OBUHToqlX0FCcyiYSKW_-42" value="fs:Perception&#xa;experience" style="graphMlID=n4;shape=rect;rounded=1;arcsize=30;fillColor=#ffff00;strokeColor=#000000;strokeWidth=1.0" parent="1" vertex="1">
          <mxGeometry x="280.00177897135404" y="220" width="81.96822102864604" height="44" as="geometry" />
        </mxCell>
        <mxCell id="OBUHToqlX0FCcyiYSKW_-44" value="cbo:Memory&#xa;Encoding" style="graphMlID=n4;shape=rect;rounded=1;arcsize=30;fillColor=#ffff00;strokeColor=#000000;strokeWidth=1.0" parent="1" vertex="1">
          <mxGeometry x="280" y="340" width="81.96822102864604" height="44" as="geometry" />
        </mxCell>
        <mxCell id="OBUHToqlX0FCcyiYSKW_-50" value="cbo:Past&#xa;Memory" style="graphMlID=n4;shape=rect;rounded=1;arcsize=30;fillColor=#ffff00;strokeColor=#000000;strokeWidth=1.0" parent="1" vertex="1">
          <mxGeometry x="280" y="480" width="81.96822102864604" height="44" as="geometry" />
        </mxCell>
        <mxCell id="711oS6TwsQ8YbBf1lQm6-1" value="&quot;High&quot; ^^xsd:string&#xa;&quot;Low&quot; ^^xsd:string" style="graphMlID=n6;shape=parallelogram;fillColor=#ccffcc;strokeColor=#000000;strokeWidth=1.0" parent="1" vertex="1">
          <mxGeometry x="484.95" y="590" width="152.06" height="53" as="geometry" />
        </mxCell>
        <mxCell id="711oS6TwsQ8YbBf1lQm6-6" value="" style="graphMlID=e0;rounded=0;endArrow=block;strokeColor=#000080;strokeWidth=1.0;startArrow=oval;startFill=1;endFill=1;exitX=1;exitY=0.5;exitDx=0;exitDy=0;entryX=0;entryY=0.5;entryDx=0;entryDy=0;" parent="1" source="OBUHToqlX0FCcyiYSKW_-12" target="OBUHToqlX0FCcyiYSKW_-21" edge="1">
          <mxGeometry relative="1" as="geometry">
            <mxPoint x="710" y="190.08183758898736" as="sourcePoint" />
            <mxPoint x="861" y="190" as="targetPoint" />
          </mxGeometry>
        </mxCell>
        <mxCell id="711oS6TwsQ8YbBf1lQm6-7" value="&lt;span style=&quot;color: rgb(0, 0, 128); font-family: dialog; background-color: rgb(248, 249, 250);&quot;&gt;&lt;font style=&quot;font-size: 14px;&quot;&gt;exob:isEngagedIn&lt;/font&gt;&lt;/span&gt;" style="text;html=1;align=center;verticalAlign=middle;resizable=0;points=[];labelBackgroundColor=#ffffff;" parent="711oS6TwsQ8YbBf1lQm6-6" vertex="1" connectable="0">
          <mxGeometry x="-0.0174" y="2" relative="1" as="geometry">
            <mxPoint as="offset" />
          </mxGeometry>
        </mxCell>
        <mxCell id="711oS6TwsQ8YbBf1lQm6-8" value="" style="graphMlID=e0;rounded=0;endArrow=block;strokeColor=#000080;strokeWidth=1.0;startArrow=oval;startFill=1;endFill=1;exitX=0;exitY=0.5;exitDx=0;exitDy=0;entryX=1;entryY=0.5;entryDx=0;entryDy=0;" parent="1" source="OBUHToqlX0FCcyiYSKW_-12" target="OBUHToqlX0FCcyiYSKW_-42" edge="1">
          <mxGeometry relative="1" as="geometry">
            <mxPoint x="484.95" y="170.08183758898736" as="sourcePoint" />
            <mxPoint x="635.95" y="170" as="targetPoint" />
          </mxGeometry>
        </mxCell>
        <mxCell id="711oS6TwsQ8YbBf1lQm6-9" value="&lt;span style=&quot;color: rgb(0, 0, 128); font-family: dialog; background-color: rgb(248, 249, 250);&quot;&gt;&lt;font style=&quot;font-size: 14px;&quot;&gt;exob:isEngagedIn&lt;/font&gt;&lt;/span&gt;" style="text;html=1;align=center;verticalAlign=middle;resizable=0;points=[];labelBackgroundColor=#ffffff;" parent="711oS6TwsQ8YbBf1lQm6-8" vertex="1" connectable="0">
          <mxGeometry x="-0.0174" y="2" relative="1" as="geometry">
            <mxPoint as="offset" />
          </mxGeometry>
        </mxCell>
        <mxCell id="711oS6TwsQ8YbBf1lQm6-11" value="" style="graphMlID=e0;rounded=0;endArrow=block;strokeColor=#000080;strokeWidth=1.0;startArrow=oval;startFill=1;endFill=1;exitX=0.5;exitY=1;exitDx=0;exitDy=0;entryX=0.5;entryY=0;entryDx=0;entryDy=0;" parent="1" source="OBUHToqlX0FCcyiYSKW_-42" target="OBUHToqlX0FCcyiYSKW_-44" edge="1">
          <mxGeometry relative="1" as="geometry">
            <mxPoint x="90" y="310.08183758898736" as="sourcePoint" />
            <mxPoint x="241" y="310" as="targetPoint" />
          </mxGeometry>
        </mxCell>
        <mxCell id="711oS6TwsQ8YbBf1lQm6-12" value="&lt;span style=&quot;color: rgb(0, 0, 128); font-family: dialog; background-color: rgb(248, 249, 250);&quot;&gt;&lt;font style=&quot;font-size: 14px;&quot;&gt;cbo:involves&lt;/font&gt;&lt;/span&gt;" style="text;html=1;align=center;verticalAlign=middle;resizable=0;points=[];labelBackgroundColor=#ffffff;" parent="711oS6TwsQ8YbBf1lQm6-11" vertex="1" connectable="0">
          <mxGeometry x="-0.0174" y="2" relative="1" as="geometry">
            <mxPoint as="offset" />
          </mxGeometry>
        </mxCell>
        <mxCell id="711oS6TwsQ8YbBf1lQm6-13" value="" style="graphMlID=e0;rounded=0;endArrow=block;strokeColor=#000080;strokeWidth=1.0;startArrow=oval;startFill=1;endFill=1;exitX=0.5;exitY=1;exitDx=0;exitDy=0;entryX=0.5;entryY=0;entryDx=0;entryDy=0;" parent="1" source="OBUHToqlX0FCcyiYSKW_-21" target="OBUHToqlX0FCcyiYSKW_-24" edge="1">
          <mxGeometry relative="1" as="geometry">
            <mxPoint x="470" y="450.08183758898736" as="sourcePoint" />
            <mxPoint x="621" y="450" as="targetPoint" />
          </mxGeometry>
        </mxCell>
        <mxCell id="711oS6TwsQ8YbBf1lQm6-14" value="&lt;span style=&quot;color: rgb(0, 0, 128); font-family: dialog; background-color: rgb(248, 249, 250);&quot;&gt;&lt;font style=&quot;font-size: 14px;&quot;&gt;actpat:produces&lt;/font&gt;&lt;/span&gt;" style="text;html=1;align=center;verticalAlign=middle;resizable=0;points=[];labelBackgroundColor=#ffffff;" parent="711oS6TwsQ8YbBf1lQm6-13" vertex="1" connectable="0">
          <mxGeometry x="-0.0174" y="2" relative="1" as="geometry">
            <mxPoint x="-2" y="10" as="offset" />
          </mxGeometry>
        </mxCell>
        <mxCell id="711oS6TwsQ8YbBf1lQm6-15" value="" style="graphMlID=e0;rounded=0;endArrow=block;strokeColor=#000080;strokeWidth=1.0;startArrow=oval;startFill=1;endFill=1;exitX=0.5;exitY=1;exitDx=0;exitDy=0;entryX=0.5;entryY=0;entryDx=0;entryDy=0;" parent="1" source="OBUHToqlX0FCcyiYSKW_-12" target="OBUHToqlX0FCcyiYSKW_-7" edge="1">
          <mxGeometry relative="1" as="geometry">
            <mxPoint x="470" y="350.08183758898736" as="sourcePoint" />
            <mxPoint x="621" y="350" as="targetPoint" />
          </mxGeometry>
        </mxCell>
        <mxCell id="711oS6TwsQ8YbBf1lQm6-16" value="&lt;span style=&quot;color: rgb(0, 0, 128); font-family: dialog; background-color: rgb(248, 249, 250);&quot;&gt;&lt;font style=&quot;font-size: 14px;&quot;&gt;news:owns&lt;/font&gt;&lt;/span&gt;" style="text;html=1;align=center;verticalAlign=middle;resizable=0;points=[];labelBackgroundColor=#ffffff;" parent="711oS6TwsQ8YbBf1lQm6-15" vertex="1" connectable="0">
          <mxGeometry x="-0.0174" y="2" relative="1" as="geometry">
            <mxPoint as="offset" />
          </mxGeometry>
        </mxCell>
        <mxCell id="711oS6TwsQ8YbBf1lQm6-17" value="" style="graphMlID=e0;rounded=0;endArrow=block;strokeColor=#000080;strokeWidth=1.0;startArrow=oval;startFill=1;endFill=1;exitX=1;exitY=0.5;exitDx=0;exitDy=0;entryX=0;entryY=0.5;entryDx=0;entryDy=0;" parent="1" source="OBUHToqlX0FCcyiYSKW_-44" target="OBUHToqlX0FCcyiYSKW_-7" edge="1">
          <mxGeometry relative="1" as="geometry">
            <mxPoint x="470" y="460.08183758898736" as="sourcePoint" />
            <mxPoint x="621" y="460" as="targetPoint" />
          </mxGeometry>
        </mxCell>
        <mxCell id="711oS6TwsQ8YbBf1lQm6-18" value="&lt;span style=&quot;color: rgb(0, 0, 128); font-family: dialog; background-color: rgb(248, 249, 250);&quot;&gt;&lt;font style=&quot;font-size: 14px;&quot;&gt;actpat:produces&lt;/font&gt;&lt;/span&gt;" style="text;html=1;align=center;verticalAlign=middle;resizable=0;points=[];labelBackgroundColor=#ffffff;" parent="711oS6TwsQ8YbBf1lQm6-17" vertex="1" connectable="0">
          <mxGeometry x="-0.0174" y="2" relative="1" as="geometry">
            <mxPoint as="offset" />
          </mxGeometry>
        </mxCell>
        <mxCell id="711oS6TwsQ8YbBf1lQm6-19" value="" style="graphMlID=e0;rounded=0;endArrow=block;strokeColor=#000080;strokeWidth=1.0;startArrow=oval;startFill=1;endFill=1;exitX=0;exitY=0.5;exitDx=0;exitDy=0;entryX=1;entryY=0.5;entryDx=0;entryDy=0;" parent="1" source="OBUHToqlX0FCcyiYSKW_-17" target="OBUHToqlX0FCcyiYSKW_-7" edge="1">
          <mxGeometry relative="1" as="geometry">
            <mxPoint x="520" y="180.08183758898736" as="sourcePoint" />
            <mxPoint x="671" y="180" as="targetPoint" />
          </mxGeometry>
        </mxCell>
        <mxCell id="711oS6TwsQ8YbBf1lQm6-20" value="&lt;span style=&quot;color: rgb(0, 0, 128); font-family: dialog; background-color: rgb(248, 249, 250);&quot;&gt;&lt;font style=&quot;font-size: 14px;&quot;&gt;rdfs:subclassof&lt;/font&gt;&lt;/span&gt;" style="text;html=1;align=center;verticalAlign=middle;resizable=0;points=[];labelBackgroundColor=#ffffff;" parent="711oS6TwsQ8YbBf1lQm6-19" vertex="1" connectable="0">
          <mxGeometry x="-0.0174" y="2" relative="1" as="geometry">
            <mxPoint as="offset" />
          </mxGeometry>
        </mxCell>
        <mxCell id="711oS6TwsQ8YbBf1lQm6-21" value="" style="graphMlID=e0;rounded=0;endArrow=block;strokeColor=#000080;strokeWidth=1.0;startArrow=oval;startFill=1;endFill=1;exitX=1;exitY=0;exitDx=0;exitDy=0;entryX=0;entryY=1;entryDx=0;entryDy=0;" parent="1" source="OBUHToqlX0FCcyiYSKW_-17" target="OBUHToqlX0FCcyiYSKW_-21" edge="1">
          <mxGeometry relative="1" as="geometry">
            <mxPoint x="849" y="470.08183758898736" as="sourcePoint" />
            <mxPoint x="1000" y="470" as="targetPoint" />
          </mxGeometry>
        </mxCell>
        <mxCell id="711oS6TwsQ8YbBf1lQm6-22" value="&lt;span style=&quot;color: rgb(0, 0, 128); font-family: dialog; background-color: rgb(248, 249, 250);&quot;&gt;&lt;font style=&quot;font-size: 14px;&quot;&gt;fao:affects&lt;/font&gt;&lt;/span&gt;" style="text;html=1;align=center;verticalAlign=middle;resizable=0;points=[];labelBackgroundColor=#ffffff;" parent="711oS6TwsQ8YbBf1lQm6-21" vertex="1" connectable="0">
          <mxGeometry x="-0.0174" y="2" relative="1" as="geometry">
            <mxPoint as="offset" />
          </mxGeometry>
        </mxCell>
        <mxCell id="711oS6TwsQ8YbBf1lQm6-23" value="" style="graphMlID=e0;rounded=0;endArrow=block;strokeColor=#000080;strokeWidth=1.0;startArrow=oval;startFill=1;endFill=1;exitX=0.5;exitY=1;exitDx=0;exitDy=0;entryX=0.5;entryY=0;entryDx=0;entryDy=0;" parent="1" source="OBUHToqlX0FCcyiYSKW_-7" target="OBUHToqlX0FCcyiYSKW_-31" edge="1">
          <mxGeometry relative="1" as="geometry">
            <mxPoint x="40" y="440.08183758898736" as="sourcePoint" />
            <mxPoint x="191" y="440" as="targetPoint" />
          </mxGeometry>
        </mxCell>
        <mxCell id="711oS6TwsQ8YbBf1lQm6-24" value="&lt;span style=&quot;color: rgb(0, 0, 128); font-family: dialog; background-color: rgb(248, 249, 250);&quot;&gt;&lt;font style=&quot;font-size: 14px;&quot;&gt;cbo:hasOutcome&lt;/font&gt;&lt;/span&gt;" style="text;html=1;align=center;verticalAlign=middle;resizable=0;points=[];labelBackgroundColor=#ffffff;" parent="711oS6TwsQ8YbBf1lQm6-23" vertex="1" connectable="0">
          <mxGeometry x="-0.0174" y="2" relative="1" as="geometry">
            <mxPoint x="-2" as="offset" />
          </mxGeometry>
        </mxCell>
        <mxCell id="711oS6TwsQ8YbBf1lQm6-25" value="" style="graphMlID=e0;rounded=0;endArrow=block;strokeColor=#000080;strokeWidth=1.0;startArrow=oval;startFill=1;endFill=1;exitX=1;exitY=0;exitDx=0;exitDy=0;entryX=0;entryY=1;entryDx=0;entryDy=0;" parent="1" source="OBUHToqlX0FCcyiYSKW_-50" target="OBUHToqlX0FCcyiYSKW_-7" edge="1">
          <mxGeometry relative="1" as="geometry">
            <mxPoint x="60" y="440.08183758898736" as="sourcePoint" />
            <mxPoint x="211" y="440" as="targetPoint" />
          </mxGeometry>
        </mxCell>
        <mxCell id="711oS6TwsQ8YbBf1lQm6-26" value="&lt;span style=&quot;color: rgb(0, 0, 128); font-family: dialog; background-color: rgb(248, 249, 250);&quot;&gt;&lt;font style=&quot;font-size: 14px;&quot;&gt;rdfs:subclassof&lt;/font&gt;&lt;/span&gt;" style="text;html=1;align=center;verticalAlign=middle;resizable=0;points=[];labelBackgroundColor=#ffffff;" parent="711oS6TwsQ8YbBf1lQm6-25" vertex="1" connectable="0">
          <mxGeometry x="-0.0174" y="2" relative="1" as="geometry">
            <mxPoint as="offset" />
          </mxGeometry>
        </mxCell>
        <mxCell id="711oS6TwsQ8YbBf1lQm6-27" value="" style="graphMlID=e0;rounded=0;endArrow=block;strokeColor=#000080;strokeWidth=1.0;startArrow=oval;startFill=1;endFill=1;exitX=0;exitY=0.5;exitDx=0;exitDy=0;entryX=1;entryY=0.5;entryDx=0;entryDy=0;" parent="1" source="OBUHToqlX0FCcyiYSKW_-31" target="OBUHToqlX0FCcyiYSKW_-50" edge="1">
          <mxGeometry relative="1" as="geometry">
            <mxPoint x="30" y="450.08183758898736" as="sourcePoint" />
            <mxPoint x="181" y="450" as="targetPoint" />
          </mxGeometry>
        </mxCell>
        <mxCell id="711oS6TwsQ8YbBf1lQm6-28" value="&lt;span style=&quot;color: rgb(0, 0, 128); font-family: dialog; background-color: rgb(248, 249, 250);&quot;&gt;&lt;font style=&quot;font-size: 14px;&quot;&gt;class:classifies&lt;/font&gt;&lt;/span&gt;" style="text;html=1;align=center;verticalAlign=middle;resizable=0;points=[];labelBackgroundColor=#ffffff;" parent="711oS6TwsQ8YbBf1lQm6-27" vertex="1" connectable="0">
          <mxGeometry x="-0.0174" y="2" relative="1" as="geometry">
            <mxPoint as="offset" />
          </mxGeometry>
        </mxCell>
        <mxCell id="711oS6TwsQ8YbBf1lQm6-29" value="" style="graphMlID=e6;rounded=0;endArrow=block;strokeColor=#008000;dashed=1;dashPattern=1 1;strokeWidth=1.0;startArrow=oval;startFill=0;endFill=0;exitX=0.5;exitY=1;exitDx=0;exitDy=0;" parent="1" source="OBUHToqlX0FCcyiYSKW_-31" target="711oS6TwsQ8YbBf1lQm6-1" edge="1">
          <mxGeometry relative="1" as="geometry">
            <Array as="points" />
            <mxPoint x="110" y="740" as="sourcePoint" />
            <mxPoint x="386" y="740" as="targetPoint" />
          </mxGeometry>
        </mxCell>
        <mxCell id="711oS6TwsQ8YbBf1lQm6-30" value="&lt;span style=&quot;color: rgb(0, 128, 0); font-family: dialog; background-color: rgb(248, 249, 250);&quot;&gt;&lt;font style=&quot;font-size: 14px;&quot;&gt;par:hasParameterDataValue&lt;/font&gt;&lt;/span&gt;" style="text;html=1;align=center;verticalAlign=middle;resizable=0;points=[];labelBackgroundColor=#ffffff;" parent="711oS6TwsQ8YbBf1lQm6-29" vertex="1" connectable="0">
          <mxGeometry x="-0.087" y="3" relative="1" as="geometry">
            <mxPoint x="14" as="offset" />
          </mxGeometry>
        </mxCell>
        <mxCell id="711oS6TwsQ8YbBf1lQm6-31" value="" style="graphMlID=e0;rounded=0;endArrow=block;strokeColor=#000080;strokeWidth=1.0;startArrow=oval;startFill=1;endFill=1;exitX=1;exitY=0;exitDx=0;exitDy=0;entryX=0;entryY=1;entryDx=0;entryDy=0;" parent="1" source="OBUHToqlX0FCcyiYSKW_-31" target="OBUHToqlX0FCcyiYSKW_-17" edge="1">
          <mxGeometry relative="1" as="geometry">
            <mxPoint x="80" y="620.0818375889874" as="sourcePoint" />
            <mxPoint x="231" y="620" as="targetPoint" />
          </mxGeometry>
        </mxCell>
        <mxCell id="711oS6TwsQ8YbBf1lQm6-32" value="&lt;span style=&quot;color: rgb(0, 0, 128); font-family: dialog; background-color: rgb(248, 249, 250);&quot;&gt;&lt;font style=&quot;font-size: 14px;&quot;&gt;class:classifies&lt;/font&gt;&lt;/span&gt;" style="text;html=1;align=center;verticalAlign=middle;resizable=0;points=[];labelBackgroundColor=#ffffff;" parent="711oS6TwsQ8YbBf1lQm6-31" vertex="1" connectable="0">
          <mxGeometry x="-0.0174" y="2" relative="1" as="geometry">
            <mxPoint x="2" y="-1" as="offset" />
          </mxGeometry>
        </mxCell>
        <mxCell id="711oS6TwsQ8YbBf1lQm6-33" value="" style="graphMlID=e0;rounded=0;endArrow=block;strokeColor=#000080;strokeWidth=1.0;startArrow=oval;startFill=1;endFill=1;exitX=0.5;exitY=1;exitDx=0;exitDy=0;entryX=0.5;entryY=1;entryDx=0;entryDy=0;" parent="1" source="OBUHToqlX0FCcyiYSKW_-50" target="OBUHToqlX0FCcyiYSKW_-17" edge="1">
          <mxGeometry relative="1" as="geometry">
            <mxPoint x="480" y="740.0818375889874" as="sourcePoint" />
            <mxPoint x="820" y="430" as="targetPoint" />
            <Array as="points">
              <mxPoint x="320" y="680" />
              <mxPoint x="710" y="680" />
              <mxPoint x="799" y="680" />
            </Array>
          </mxGeometry>
        </mxCell>
        <mxCell id="711oS6TwsQ8YbBf1lQm6-34" value="&lt;span style=&quot;color: rgb(0, 0, 128); font-family: dialog; background-color: rgb(248, 249, 250);&quot;&gt;&lt;font style=&quot;font-size: 14px;&quot;&gt;sequence:precedes&lt;/font&gt;&lt;/span&gt;" style="text;html=1;align=center;verticalAlign=middle;resizable=0;points=[];labelBackgroundColor=#ffffff;" parent="711oS6TwsQ8YbBf1lQm6-33" vertex="1" connectable="0">
          <mxGeometry x="-0.0174" y="2" relative="1" as="geometry">
            <mxPoint x="-60" as="offset" />
          </mxGeometry>
        </mxCell>
        <mxCell id="711oS6TwsQ8YbBf1lQm6-40" value="Prefixes" style="graphMlID=n0;shape=swimlane;startSize=20;fillColor=#b7b69e;strokeColor=#000000;strokeWidth=1.0;align=right;spacingRight=10;fontStyle=1" parent="1" vertex="1">
          <mxGeometry x="40" y="750" width="799.9964524373497" height="200" as="geometry" />
        </mxCell>
        <mxCell id="711oS6TwsQ8YbBf1lQm6-41" value="&lt;div style=&quot;&quot;&gt;&lt;b style=&quot;background-color: initial;&quot;&gt;foaf:&lt;/b&gt;&lt;br&gt;&lt;/div&gt;&lt;b&gt;&lt;div style=&quot;&quot;&gt;&lt;b style=&quot;background-color: initial;&quot;&gt;actpat:&lt;/b&gt;&lt;/div&gt;&lt;div style=&quot;&quot;&gt;&lt;b style=&quot;background-color: initial;&quot;&gt;fao:&lt;/b&gt;&lt;/div&gt;&lt;div style=&quot;&quot;&gt;&lt;b style=&quot;background-color: initial;&quot;&gt;news:&lt;/b&gt;&lt;/div&gt;&lt;div style=&quot;&quot;&gt;&lt;b style=&quot;background-color: initial;&quot;&gt;cbo:&lt;/b&gt;&lt;/div&gt;&lt;div style=&quot;&quot;&gt;&lt;b style=&quot;background-color: initial;&quot;&gt;exob:&lt;/b&gt;&lt;/div&gt;&lt;div style=&quot;&quot;&gt;&lt;b style=&quot;background-color: initial;&quot;&gt;par:&lt;/b&gt;&lt;/div&gt;&lt;div style=&quot;&quot;&gt;&lt;b style=&quot;background-color: initial;&quot;&gt;sequence:&lt;/b&gt;&lt;/div&gt;&lt;div style=&quot;&quot;&gt;&lt;b style=&quot;background-color: initial;&quot;&gt;class:&lt;/b&gt;&lt;/div&gt;&lt;div style=&quot;&quot;&gt;fs:&lt;/div&gt;&lt;div style=&quot;&quot;&gt;&lt;b style=&quot;background-color: initial;&quot;&gt;rdfs:&lt;/b&gt;&lt;br&gt;&lt;/div&gt;&lt;/b&gt;" style="text;html=1;align=center;verticalAlign=middle;resizable=0;points=[];autosize=1;fontFamily=Courier New;" parent="711oS6TwsQ8YbBf1lQm6-40" vertex="1">
          <mxGeometry x="-10.003547562650267" y="24.99953721049043" width="90" height="170" as="geometry" />
        </mxCell>
        <mxCell id="711oS6TwsQ8YbBf1lQm6-42" value="&lt;div style=&quot;border-color: var(--border-color);&quot;&gt;&lt;span style=&quot;background-color: initial;&quot;&gt;http://xmlns.com/foaf/0.1/&lt;/span&gt;&lt;br&gt;&lt;/div&gt;http://descartes-core.org/ontologies/activities/1.0/ActivityPattern.owl#&lt;div style=&quot;border-color: var(--border-color);&quot;&gt;http://www.fao.org/aims/aos/aos.owl&amp;nbsp;&lt;br&gt;&lt;/div&gt;&lt;div style=&quot;border-color: var(--border-color);&quot;&gt;&lt;/div&gt;&lt;span style=&quot;text-align: center;&quot;&gt;http://semantic.cs.put.poznan.pl/ontologies/newsreportingevent.owl&amp;nbsp;&lt;/span&gt;&lt;b style=&quot;text-align: center; background-color: initial; border-color: var(--border-color);&quot;&gt;&lt;span style=&quot;border-color: var(--border-color);&quot;&gt;&lt;span style=&quot;border-color: var(--border-color);&quot;&gt;&amp;nbsp;&lt;/span&gt;&lt;/span&gt;&lt;/b&gt;&lt;span style=&quot;text-align: center;&quot;&gt;&lt;br&gt;&lt;/span&gt;&lt;span style=&quot;text-align: center; background-color: initial; border-color: var(--border-color);&quot;&gt;&lt;span style=&quot;border-color: var(--border-color);&quot;&gt;&lt;span style=&quot;border-color: var(--border-color);&quot;&gt;https://github.com/corrado877/CognitiveBiasOntologies/blob/main/Recency_Bias/Recency_Bias.owl&lt;b&gt;&amp;nbsp; &amp;nbsp;&amp;nbsp;&lt;/b&gt;&lt;/span&gt;&lt;/span&gt;&lt;/span&gt;&lt;span style=&quot;text-align: center;&quot;&gt;&lt;br&gt;&lt;/span&gt;&lt;span style=&quot;text-align: center;&quot;&gt;http://modellingdh.github.io/ont/odp/term/&lt;/span&gt;&lt;b&gt;&amp;nbsp;&lt;/b&gt;&lt;br&gt;http://ontologydesignpatterns.org/cp/owl/parameter.owl&amp;nbsp;&lt;br&gt;http://ontologydesignpatterns.org/cp/owl/sequence.owls&lt;br&gt;http://www.ontologydesignpatterns.org/cp/owl/classification.owl&lt;br&gt;https://w3id.org/framester/data/framestercore/&amp;nbsp;&lt;br&gt;&lt;span style=&quot;font-weight: normal; background-color: initial;&quot;&gt;http://www.w3.org/2002/07/owl#&lt;/span&gt;&lt;span style=&quot;border-color: var(--border-color); text-align: center;&quot;&gt;&lt;/span&gt;&lt;span style=&quot;text-align: center;&quot;&gt;http://www.w3.org/2000/01/rdf-schema#&lt;/span&gt;" style="text;html=1;align=left;verticalAlign=middle;resizable=0;points=[];autosize=1;fontFamily=Courier New;" parent="711oS6TwsQ8YbBf1lQm6-40" vertex="1">
          <mxGeometry x="79.99645243734973" y="24.99953721049055" width="720" height="170" as="geometry" />
        </mxCell>
      </root>
    </mxGraphModel>
  </diagram>
</mxfile>
